<svg xmlns="http://www.w3.org/2000/svg" xmlns:xlink="http://www.w3.org/1999/xlink" version="1.1" x="0px" y="0px" viewBox="0 0 100 100"  xml:space="preserve"><g><path d="M51.9,74.4c-0.2-0.3-0.3-0.6-0.4-1c-0.1-0.1-0.1-0.2-0.2-0.4c-0.1-0.2-0.2-0.4-0.2-0.6c-0.7-1.9-1-3.4-1-4.6   c-0.1-1.6,0.2-2.4,0.2-2.5c0.2-0.5,0-1.1-0.5-1.3c-0.5-0.2-1.1,0-1.3,0.5c-0.1,0.2-1.2,3,0.5,7.9c0.1,0.3,0.2,0.6,0.4,1   c0.1,0.3,0.3,0.6,0.4,1c0.4,1,1,2,1.7,3.1c0.2,0.3,0.5,0.5,0.9,0.5c0.2,0,0.4,0,0.5-0.1c0.5-0.3,0.6-0.9,0.3-1.4   C52.7,75.9,52.3,75.1,51.9,74.4z"></path><path d="M50,40.8H35.4c-2,0-3.6,1.6-3.6,3.6v0.9c0,2,1.6,3.6,3.6,3.6H50c2,0,3.6-1.6,3.6-3.6v-0.9C53.5,42.4,51.9,40.8,50,40.8z    M51.5,45.3c0,0.9-0.7,1.6-1.6,1.6h-8.8v-4.1H50c0.9,0,1.6,0.7,1.6,1.6V45.3z"></path><path d="M24.7,59.4h0.9h2.6c0.6,0,1-0.4,1-1s-0.4-1-1-1h-6.9h-1.1H19h-2.9c-0.6,0-1,0.4-1,1s0.4,1,1,1H20h1.1h1.2h1.3H24.7   L24.7,59.4z"></path><path d="M91.4,40.7c3-1.5,4.2-5.2,2.7-8.2c-1.5-3-5.2-4.2-8.2-2.7c-1.1,0.5-8.7,4.6-12.3,11.6c-2.4-1.2-5.3-1.9-8.3-2.5   c-8.1-1.8-16.6-3.7-16.6-15.2c0-1.9-0.4-3.4-1.2-4.4c-0.8-1-2-1.6-3.4-1.6c-4.9,0-12,6.1-16.7,11.3c-3.6,4.1-6.4,8.2-8.2,11.9H8.8   c-2,0-3.6,1.6-3.6,3.6v0.9c0,2,1.6,3.6,3.6,3.6h8.4c0,1.7,0.2,3.4,0.6,5.1h-1.8c-2.4,0-4.4,2-4.4,4.4s2,4.4,4.4,4.4h6.1   c0.1,0.1,0.2,0.3,0.3,0.4c-1.6,7.9,1.2,13.2,8.5,15.6l0.1,0c0.1,0,0.6,0.1,1.3,0.1c1.2,0,3.1-0.3,4.5-1.7c0.9-0.9,1.6-2.2,1.9-3.7   c0.2,0.1,0.5,0.1,0.8,0.2c2,5,6.3,7.9,12.7,8.7l0.1,0c0,0,0,0,0,0c0.4,0,4.3-0.1,6.5-3.3c1.2-1.7,1.6-4,1.3-6.7   c6.8-2.6,12.2-7.3,15.3-13c1.6,2.1,3.7,4.2,6.4,6.2c1.1,0.8,2.3,1.2,3.7,1.2c1.9,0,3.7-0.9,4.9-2.4c2-2.7,1.5-6.5-1.2-8.6   c-3.6-2.7-5.5-5.4-5.3-7.4C84.4,45.2,89.1,41.8,91.4,40.7z M17.4,46.9h-2.8v-4.1h3.9h1.1h1.1h2.8c0.9,0,1.6,0.7,1.6,1.6v0.9   c0,0.9-0.7,1.6-1.6,1.6h-4h-1H17.4z M23.1,60.8H22h-1.2h-4.7c-1.3,0-2.4-1.1-2.4-2.4s1.1-2.4,2.4-2.4h2.4h1h1.1h7.5   c1.3,0,2.4,1.1,2.4,2.4s-1.1,2.4-2.4,2.4h-0.5h-2.4h-1.1H23.1L23.1,60.8z M35.6,75.8c-1.5,1.5-3.7,1.2-4,1.1   c-7.2-2.4-8-7.7-7.5-11.8c1.6,1.7,3.5,3.2,5.6,4.5c0.1,1.5,0.5,3.2,1.2,5.3c0.1,0.4,0.5,0.7,0.9,0.7c0.1,0,0.2,0,0.3-0.1   c0.5-0.2,0.8-0.8,0.6-1.3c-0.4-1.2-0.7-2.4-0.9-3.3c1.6,0.8,3.3,1.6,5.1,2.1C36.8,74.2,36.3,75.1,35.6,75.8z M60.1,70.3   c-0.4-1.7-0.9-3.6-1.7-5.6c-0.2-0.5-0.8-0.8-1.3-0.6c-0.3,0.1-0.5,0.4-0.6,0.7c-0.1,0.2-0.1,0.4,0,0.6c0.8,2,1.4,3.9,1.7,5.5   c0.1,0.3,0.1,0.7,0.2,1c0,0.3,0.1,0.7,0.1,1c0.1,2-0.2,3.7-1,4.9c-1.6,2.3-4.4,2.5-4.8,2.5c-5.7-0.7-8.8-3.2-10.5-6.2   c-0.2-0.4-0.4-0.7-0.5-1.1c-0.2-0.4-0.3-0.7-0.4-1.1c-1.3-3.9-0.8-8.2-0.6-10.3c0-0.4,0.1-0.6,0.1-0.8c0-0.1,0-0.2,0-0.2   c0-0.6-0.4-1-1-1s-1,0.4-1,1c0,0.2,0,0.5-0.1,0.9c-0.1,1.2-0.2,2.3-0.2,3.4c-0.1,2.4,0.1,4.6,0.6,6.6c-0.2-0.1-0.5-0.1-0.7-0.2   c-0.3-0.1-0.7-0.2-1-0.3c-2-0.7-3.9-1.5-5.6-2.5c0,0,0,0,0,0c-0.3-0.2-0.7-0.4-1-0.6c-0.3-0.2-0.6-0.4-1-0.6   c-1.9-1.3-3.5-2.8-5-4.4h3.4c0.8,0,1.6-0.2,2.3-0.6c1.3-0.8,2.1-2.2,2.1-3.8c0-2.4-2-4.4-4.4-4.4H20c-0.4-1.6-0.7-3.3-0.7-5.1h4.1   c2,0,3.6-1.6,3.6-3.6v-0.9c0-2-1.6-3.6-3.6-3.6h-1.8c5-9.9,16.9-21.2,22.7-21.2c0.8,0,1.4,0.3,1.8,0.8c0.5,0.7,0.8,1.8,0.8,3.2   c0,13.1,10,15.3,18.1,17.1c3.3,0.7,6,1.4,7.9,2.4c-0.5,1.3-0.8,2.6-0.9,4.1c-0.3,3.5,0.5,6.9,2.5,10.2   C71.7,63.1,66.6,67.7,60.1,70.3z M82.1,48.2c-0.2,2.8,1.8,5.9,6.1,9.1c1.8,1.4,2.2,4,0.8,5.8c-0.8,1-2,1.6-3.3,1.6   c-0.9,0-1.8-0.3-2.5-0.8c-2.8-2.2-5-4.4-6.6-6.7c-0.2-0.3-0.5-0.7-0.7-1c-0.2-0.4-0.5-0.8-0.6-1.2c-1.2-2.5-1.7-5-1.5-7.6   c0.1-1.1,0.3-2.1,0.7-3.1c0.1-0.3,0.2-0.7,0.4-1c0.1-0.3,0.3-0.6,0.4-0.9c3.2-6.6,10.5-10.4,11.4-10.9c0.6-0.3,1.2-0.4,1.8-0.4   c1.5,0,3,0.8,3.7,2.3c1,2,0.2,4.5-1.8,5.5C88.3,40,82.5,43.9,82.1,48.2z"></path><path d="M88.2,34.3c-0.4,0.2-8.3,4.2-10.6,10.8c-0.2,0.6-0.3,1.1-0.5,1.7c-0.1,0.3-0.1,0.6-0.1,0.9c-0.1,1.1,0,2.2,0.2,3.3   c0.2,0.7,0.4,1.4,0.7,2c1.2,2.8,3.6,5.6,7.2,8.3c0.2,0.1,0.4,0.2,0.6,0.2c0.3,0,0.6-0.1,0.8-0.4c0.3-0.4,0.2-1.1-0.2-1.4   c-5.2-4-7.7-8-7.4-11.9c0.6-7,10-11.7,10.1-11.8c0.5-0.2,0.7-0.8,0.4-1.3C89.3,34.3,88.7,34.1,88.2,34.3z"></path></g></svg>